<mxfile host="app.diagrams.net" modified="2020-12-29T16:52:53.199Z" agent="5.0 (Windows)" etag="H_Zhx8XsftP0vLP96iic" version="14.1.3" type="github">
  <diagram name="Page-1" id="929967ad-93f9-6ef4-fab6-5d389245f69c">
    <mxGraphModel dx="1673" dy="931" grid="1" gridSize="10" guides="1" tooltips="1" connect="1" arrows="1" fold="1" page="1" pageScale="1.5" pageWidth="1169" pageHeight="826" background="none" math="0" shadow="0">
      <root>
        <mxCell id="0" style=";html=1;" />
        <mxCell id="1" style=";html=1;" parent="0" />
        <mxCell id="1672d66443f91eb5-23" value="LanguageCard" style="text;strokeColor=none;fillColor=none;html=1;fontSize=24;fontStyle=1;verticalAlign=middle;align=center;" parent="1" vertex="1">
          <mxGeometry x="120" y="40" width="1510" height="40" as="geometry" />
        </mxCell>
        <mxCell id="HCh2mOCaZZa9Vk0N-4pF-28" style="edgeStyle=orthogonalEdgeStyle;rounded=0;orthogonalLoop=1;jettySize=auto;html=1;entryX=0.491;entryY=1.034;entryDx=0;entryDy=0;entryPerimeter=0;" edge="1" parent="1" source="HCh2mOCaZZa9Vk0N-4pF-12" target="HCh2mOCaZZa9Vk0N-4pF-27">
          <mxGeometry relative="1" as="geometry" />
        </mxCell>
        <mxCell id="HCh2mOCaZZa9Vk0N-4pF-29" style="edgeStyle=orthogonalEdgeStyle;rounded=0;orthogonalLoop=1;jettySize=auto;html=1;entryX=0.504;entryY=0.989;entryDx=0;entryDy=0;entryPerimeter=0;" edge="1" parent="1" source="HCh2mOCaZZa9Vk0N-4pF-12" target="HCh2mOCaZZa9Vk0N-4pF-23">
          <mxGeometry relative="1" as="geometry" />
        </mxCell>
        <mxCell id="HCh2mOCaZZa9Vk0N-4pF-30" style="edgeStyle=orthogonalEdgeStyle;rounded=0;orthogonalLoop=1;jettySize=auto;html=1;entryX=0.504;entryY=1.034;entryDx=0;entryDy=0;entryPerimeter=0;" edge="1" parent="1" source="HCh2mOCaZZa9Vk0N-4pF-12" target="HCh2mOCaZZa9Vk0N-4pF-19">
          <mxGeometry relative="1" as="geometry" />
        </mxCell>
        <mxCell id="HCh2mOCaZZa9Vk0N-4pF-12" value="CARD / MAPPING" style="swimlane;fontStyle=0;childLayout=stackLayout;horizontal=1;startSize=26;fillColor=none;horizontalStack=0;resizeParent=1;resizeParentMax=0;resizeLast=0;collapsible=1;marginBottom=0;" vertex="1" parent="1">
          <mxGeometry x="850" y="490" width="140" height="104" as="geometry" />
        </mxCell>
        <mxCell id="HCh2mOCaZZa9Vk0N-4pF-13" value="+ field: type" style="text;strokeColor=none;fillColor=none;align=left;verticalAlign=top;spacingLeft=4;spacingRight=4;overflow=hidden;rotatable=0;points=[[0,0.5],[1,0.5]];portConstraint=eastwest;" vertex="1" parent="HCh2mOCaZZa9Vk0N-4pF-12">
          <mxGeometry y="26" width="140" height="26" as="geometry" />
        </mxCell>
        <mxCell id="HCh2mOCaZZa9Vk0N-4pF-14" value="+ field: type" style="text;strokeColor=none;fillColor=none;align=left;verticalAlign=top;spacingLeft=4;spacingRight=4;overflow=hidden;rotatable=0;points=[[0,0.5],[1,0.5]];portConstraint=eastwest;" vertex="1" parent="HCh2mOCaZZa9Vk0N-4pF-12">
          <mxGeometry y="52" width="140" height="26" as="geometry" />
        </mxCell>
        <mxCell id="HCh2mOCaZZa9Vk0N-4pF-15" value="+ field: type" style="text;strokeColor=none;fillColor=none;align=left;verticalAlign=top;spacingLeft=4;spacingRight=4;overflow=hidden;rotatable=0;points=[[0,0.5],[1,0.5]];portConstraint=eastwest;" vertex="1" parent="HCh2mOCaZZa9Vk0N-4pF-12">
          <mxGeometry y="78" width="140" height="26" as="geometry" />
        </mxCell>
        <mxCell id="HCh2mOCaZZa9Vk0N-4pF-16" value="GERMAN" style="swimlane;fontStyle=0;childLayout=stackLayout;horizontal=1;startSize=26;fillColor=none;horizontalStack=0;resizeParent=1;resizeParentMax=0;resizeLast=0;collapsible=1;marginBottom=0;" vertex="1" parent="1">
          <mxGeometry x="1120" y="290" width="140" height="104" as="geometry" />
        </mxCell>
        <mxCell id="HCh2mOCaZZa9Vk0N-4pF-17" value="+ field: type" style="text;strokeColor=none;fillColor=none;align=left;verticalAlign=top;spacingLeft=4;spacingRight=4;overflow=hidden;rotatable=0;points=[[0,0.5],[1,0.5]];portConstraint=eastwest;" vertex="1" parent="HCh2mOCaZZa9Vk0N-4pF-16">
          <mxGeometry y="26" width="140" height="26" as="geometry" />
        </mxCell>
        <mxCell id="HCh2mOCaZZa9Vk0N-4pF-18" value="+ field: type" style="text;strokeColor=none;fillColor=none;align=left;verticalAlign=top;spacingLeft=4;spacingRight=4;overflow=hidden;rotatable=0;points=[[0,0.5],[1,0.5]];portConstraint=eastwest;" vertex="1" parent="HCh2mOCaZZa9Vk0N-4pF-16">
          <mxGeometry y="52" width="140" height="26" as="geometry" />
        </mxCell>
        <mxCell id="HCh2mOCaZZa9Vk0N-4pF-19" value="+ field: type" style="text;strokeColor=none;fillColor=none;align=left;verticalAlign=top;spacingLeft=4;spacingRight=4;overflow=hidden;rotatable=0;points=[[0,0.5],[1,0.5]];portConstraint=eastwest;" vertex="1" parent="HCh2mOCaZZa9Vk0N-4pF-16">
          <mxGeometry y="78" width="140" height="26" as="geometry" />
        </mxCell>
        <mxCell id="HCh2mOCaZZa9Vk0N-4pF-40" style="edgeStyle=orthogonalEdgeStyle;rounded=0;orthogonalLoop=1;jettySize=auto;html=1;entryX=0.478;entryY=1.002;entryDx=0;entryDy=0;entryPerimeter=0;" edge="1" parent="1" source="HCh2mOCaZZa9Vk0N-4pF-20" target="HCh2mOCaZZa9Vk0N-4pF-38">
          <mxGeometry relative="1" as="geometry" />
        </mxCell>
        <mxCell id="HCh2mOCaZZa9Vk0N-4pF-20" value="Russian" style="swimlane;fontStyle=0;childLayout=stackLayout;horizontal=1;startSize=26;fillColor=none;horizontalStack=0;resizeParent=1;resizeParentMax=0;resizeLast=0;collapsible=1;marginBottom=0;" vertex="1" parent="1">
          <mxGeometry x="920" y="290" width="140" height="104" as="geometry" />
        </mxCell>
        <mxCell id="HCh2mOCaZZa9Vk0N-4pF-21" value="+ field: type" style="text;strokeColor=none;fillColor=none;align=left;verticalAlign=top;spacingLeft=4;spacingRight=4;overflow=hidden;rotatable=0;points=[[0,0.5],[1,0.5]];portConstraint=eastwest;" vertex="1" parent="HCh2mOCaZZa9Vk0N-4pF-20">
          <mxGeometry y="26" width="140" height="26" as="geometry" />
        </mxCell>
        <mxCell id="HCh2mOCaZZa9Vk0N-4pF-22" value="+ field: type" style="text;strokeColor=none;fillColor=none;align=left;verticalAlign=top;spacingLeft=4;spacingRight=4;overflow=hidden;rotatable=0;points=[[0,0.5],[1,0.5]];portConstraint=eastwest;" vertex="1" parent="HCh2mOCaZZa9Vk0N-4pF-20">
          <mxGeometry y="52" width="140" height="26" as="geometry" />
        </mxCell>
        <mxCell id="HCh2mOCaZZa9Vk0N-4pF-23" value="+ field: type" style="text;strokeColor=none;fillColor=none;align=left;verticalAlign=top;spacingLeft=4;spacingRight=4;overflow=hidden;rotatable=0;points=[[0,0.5],[1,0.5]];portConstraint=eastwest;" vertex="1" parent="HCh2mOCaZZa9Vk0N-4pF-20">
          <mxGeometry y="78" width="140" height="26" as="geometry" />
        </mxCell>
        <mxCell id="HCh2mOCaZZa9Vk0N-4pF-39" style="edgeStyle=orthogonalEdgeStyle;rounded=0;orthogonalLoop=1;jettySize=auto;html=1;entryX=0.459;entryY=1.002;entryDx=0;entryDy=0;entryPerimeter=0;" edge="1" parent="1" source="HCh2mOCaZZa9Vk0N-4pF-24" target="HCh2mOCaZZa9Vk0N-4pF-34">
          <mxGeometry relative="1" as="geometry" />
        </mxCell>
        <mxCell id="HCh2mOCaZZa9Vk0N-4pF-24" value="Japanese" style="swimlane;fontStyle=0;childLayout=stackLayout;horizontal=1;startSize=26;fillColor=none;horizontalStack=0;resizeParent=1;resizeParentMax=0;resizeLast=0;collapsible=1;marginBottom=0;" vertex="1" parent="1">
          <mxGeometry x="730" y="290" width="140" height="104" as="geometry" />
        </mxCell>
        <mxCell id="HCh2mOCaZZa9Vk0N-4pF-25" value="+ field: type" style="text;strokeColor=none;fillColor=none;align=left;verticalAlign=top;spacingLeft=4;spacingRight=4;overflow=hidden;rotatable=0;points=[[0,0.5],[1,0.5]];portConstraint=eastwest;" vertex="1" parent="HCh2mOCaZZa9Vk0N-4pF-24">
          <mxGeometry y="26" width="140" height="26" as="geometry" />
        </mxCell>
        <mxCell id="HCh2mOCaZZa9Vk0N-4pF-26" value="+ field: type" style="text;strokeColor=none;fillColor=none;align=left;verticalAlign=top;spacingLeft=4;spacingRight=4;overflow=hidden;rotatable=0;points=[[0,0.5],[1,0.5]];portConstraint=eastwest;" vertex="1" parent="HCh2mOCaZZa9Vk0N-4pF-24">
          <mxGeometry y="52" width="140" height="26" as="geometry" />
        </mxCell>
        <mxCell id="HCh2mOCaZZa9Vk0N-4pF-27" value="+ field: type" style="text;strokeColor=none;fillColor=none;align=left;verticalAlign=top;spacingLeft=4;spacingRight=4;overflow=hidden;rotatable=0;points=[[0,0.5],[1,0.5]];portConstraint=eastwest;" vertex="1" parent="HCh2mOCaZZa9Vk0N-4pF-24">
          <mxGeometry y="78" width="140" height="26" as="geometry" />
        </mxCell>
        <mxCell id="HCh2mOCaZZa9Vk0N-4pF-31" value="KANA" style="swimlane;fontStyle=1;align=center;verticalAlign=top;childLayout=stackLayout;horizontal=1;startSize=26;horizontalStack=0;resizeParent=1;resizeParentMax=0;resizeLast=0;collapsible=1;marginBottom=0;" vertex="1" parent="1">
          <mxGeometry x="726" y="110" width="160" height="86" as="geometry" />
        </mxCell>
        <mxCell id="HCh2mOCaZZa9Vk0N-4pF-32" value="+ field: type" style="text;strokeColor=none;fillColor=none;align=left;verticalAlign=top;spacingLeft=4;spacingRight=4;overflow=hidden;rotatable=0;points=[[0,0.5],[1,0.5]];portConstraint=eastwest;" vertex="1" parent="HCh2mOCaZZa9Vk0N-4pF-31">
          <mxGeometry y="26" width="160" height="26" as="geometry" />
        </mxCell>
        <mxCell id="HCh2mOCaZZa9Vk0N-4pF-33" value="" style="line;strokeWidth=1;fillColor=none;align=left;verticalAlign=middle;spacingTop=-1;spacingLeft=3;spacingRight=3;rotatable=0;labelPosition=right;points=[];portConstraint=eastwest;" vertex="1" parent="HCh2mOCaZZa9Vk0N-4pF-31">
          <mxGeometry y="52" width="160" height="8" as="geometry" />
        </mxCell>
        <mxCell id="HCh2mOCaZZa9Vk0N-4pF-34" value="+ method(type): type" style="text;strokeColor=none;fillColor=none;align=left;verticalAlign=top;spacingLeft=4;spacingRight=4;overflow=hidden;rotatable=0;points=[[0,0.5],[1,0.5]];portConstraint=eastwest;" vertex="1" parent="HCh2mOCaZZa9Vk0N-4pF-31">
          <mxGeometry y="60" width="160" height="26" as="geometry" />
        </mxCell>
        <mxCell id="HCh2mOCaZZa9Vk0N-4pF-35" value="KYRILL" style="swimlane;fontStyle=1;align=center;verticalAlign=top;childLayout=stackLayout;horizontal=1;startSize=26;horizontalStack=0;resizeParent=1;resizeParentMax=0;resizeLast=0;collapsible=1;marginBottom=0;" vertex="1" parent="1">
          <mxGeometry x="913" y="110" width="160" height="86" as="geometry" />
        </mxCell>
        <mxCell id="HCh2mOCaZZa9Vk0N-4pF-36" value="+ field: type" style="text;strokeColor=none;fillColor=none;align=left;verticalAlign=top;spacingLeft=4;spacingRight=4;overflow=hidden;rotatable=0;points=[[0,0.5],[1,0.5]];portConstraint=eastwest;" vertex="1" parent="HCh2mOCaZZa9Vk0N-4pF-35">
          <mxGeometry y="26" width="160" height="26" as="geometry" />
        </mxCell>
        <mxCell id="HCh2mOCaZZa9Vk0N-4pF-37" value="" style="line;strokeWidth=1;fillColor=none;align=left;verticalAlign=middle;spacingTop=-1;spacingLeft=3;spacingRight=3;rotatable=0;labelPosition=right;points=[];portConstraint=eastwest;" vertex="1" parent="HCh2mOCaZZa9Vk0N-4pF-35">
          <mxGeometry y="52" width="160" height="8" as="geometry" />
        </mxCell>
        <mxCell id="HCh2mOCaZZa9Vk0N-4pF-38" value="+ method(type): type" style="text;strokeColor=none;fillColor=none;align=left;verticalAlign=top;spacingLeft=4;spacingRight=4;overflow=hidden;rotatable=0;points=[[0,0.5],[1,0.5]];portConstraint=eastwest;" vertex="1" parent="HCh2mOCaZZa9Vk0N-4pF-35">
          <mxGeometry y="60" width="160" height="26" as="geometry" />
        </mxCell>
        <mxCell id="HCh2mOCaZZa9Vk0N-4pF-58" style="edgeStyle=orthogonalEdgeStyle;rounded=0;orthogonalLoop=1;jettySize=auto;html=1;" edge="1" parent="1" source="HCh2mOCaZZa9Vk0N-4pF-41" target="HCh2mOCaZZa9Vk0N-4pF-54">
          <mxGeometry relative="1" as="geometry" />
        </mxCell>
        <mxCell id="HCh2mOCaZZa9Vk0N-4pF-59" style="edgeStyle=orthogonalEdgeStyle;rounded=0;orthogonalLoop=1;jettySize=auto;html=1;" edge="1" parent="1" source="HCh2mOCaZZa9Vk0N-4pF-41" target="HCh2mOCaZZa9Vk0N-4pF-49">
          <mxGeometry relative="1" as="geometry" />
        </mxCell>
        <mxCell id="HCh2mOCaZZa9Vk0N-4pF-61" style="edgeStyle=orthogonalEdgeStyle;rounded=0;orthogonalLoop=1;jettySize=auto;html=1;entryX=0.466;entryY=0.989;entryDx=0;entryDy=0;entryPerimeter=0;" edge="1" parent="1" source="HCh2mOCaZZa9Vk0N-4pF-41" target="HCh2mOCaZZa9Vk0N-4pF-15">
          <mxGeometry relative="1" as="geometry" />
        </mxCell>
        <mxCell id="HCh2mOCaZZa9Vk0N-4pF-63" style="edgeStyle=orthogonalEdgeStyle;rounded=0;orthogonalLoop=1;jettySize=auto;html=1;entryX=0.004;entryY=0.133;entryDx=0;entryDy=0;entryPerimeter=0;" edge="1" parent="1" source="HCh2mOCaZZa9Vk0N-4pF-41" target="HCh2mOCaZZa9Vk0N-4pF-26">
          <mxGeometry relative="1" as="geometry">
            <Array as="points">
              <mxPoint x="700" y="345" />
            </Array>
          </mxGeometry>
        </mxCell>
        <mxCell id="HCh2mOCaZZa9Vk0N-4pF-64" style="edgeStyle=orthogonalEdgeStyle;rounded=0;orthogonalLoop=1;jettySize=auto;html=1;entryX=1;entryY=1.224;entryDx=0;entryDy=0;entryPerimeter=0;" edge="1" parent="1" source="HCh2mOCaZZa9Vk0N-4pF-41" target="HCh2mOCaZZa9Vk0N-4pF-21">
          <mxGeometry relative="1" as="geometry">
            <Array as="points">
              <mxPoint x="1090" y="348" />
            </Array>
          </mxGeometry>
        </mxCell>
        <mxCell id="HCh2mOCaZZa9Vk0N-4pF-65" style="edgeStyle=orthogonalEdgeStyle;rounded=0;orthogonalLoop=1;jettySize=auto;html=1;entryX=1;entryY=0.5;entryDx=0;entryDy=0;" edge="1" parent="1" source="HCh2mOCaZZa9Vk0N-4pF-41" target="HCh2mOCaZZa9Vk0N-4pF-17">
          <mxGeometry relative="1" as="geometry">
            <Array as="points">
              <mxPoint x="1210" y="506" />
              <mxPoint x="1280" y="506" />
              <mxPoint x="1280" y="329" />
            </Array>
          </mxGeometry>
        </mxCell>
        <mxCell id="HCh2mOCaZZa9Vk0N-4pF-71" style="edgeStyle=orthogonalEdgeStyle;rounded=0;orthogonalLoop=1;jettySize=auto;html=1;" edge="1" parent="1" source="HCh2mOCaZZa9Vk0N-4pF-41" target="HCh2mOCaZZa9Vk0N-4pF-69">
          <mxGeometry relative="1" as="geometry">
            <Array as="points">
              <mxPoint x="520" y="713" />
            </Array>
          </mxGeometry>
        </mxCell>
        <mxCell id="HCh2mOCaZZa9Vk0N-4pF-41" value="CARD-Fasade" style="swimlane;fontStyle=1;align=center;verticalAlign=top;childLayout=stackLayout;horizontal=1;startSize=26;horizontalStack=0;resizeParent=1;resizeParentMax=0;resizeLast=0;collapsible=1;marginBottom=0;" vertex="1" parent="1">
          <mxGeometry x="580" y="670" width="670" height="86" as="geometry" />
        </mxCell>
        <mxCell id="HCh2mOCaZZa9Vk0N-4pF-42" value="+ field: type" style="text;strokeColor=none;fillColor=none;align=left;verticalAlign=top;spacingLeft=4;spacingRight=4;overflow=hidden;rotatable=0;points=[[0,0.5],[1,0.5]];portConstraint=eastwest;" vertex="1" parent="HCh2mOCaZZa9Vk0N-4pF-41">
          <mxGeometry y="26" width="670" height="26" as="geometry" />
        </mxCell>
        <mxCell id="HCh2mOCaZZa9Vk0N-4pF-43" value="" style="line;strokeWidth=1;fillColor=none;align=left;verticalAlign=middle;spacingTop=-1;spacingLeft=3;spacingRight=3;rotatable=0;labelPosition=right;points=[];portConstraint=eastwest;" vertex="1" parent="HCh2mOCaZZa9Vk0N-4pF-41">
          <mxGeometry y="52" width="670" height="8" as="geometry" />
        </mxCell>
        <mxCell id="HCh2mOCaZZa9Vk0N-4pF-44" value="+ method(type): type" style="text;strokeColor=none;fillColor=none;align=left;verticalAlign=top;spacingLeft=4;spacingRight=4;overflow=hidden;rotatable=0;points=[[0,0.5],[1,0.5]];portConstraint=eastwest;" vertex="1" parent="HCh2mOCaZZa9Vk0N-4pF-41">
          <mxGeometry y="60" width="670" height="26" as="geometry" />
        </mxCell>
        <mxCell id="HCh2mOCaZZa9Vk0N-4pF-49" value="INPUT" style="swimlane;fontStyle=1;align=center;verticalAlign=top;childLayout=stackLayout;horizontal=1;startSize=26;horizontalStack=0;resizeParent=1;resizeParentMax=0;resizeLast=0;collapsible=1;marginBottom=0;" vertex="1" parent="1">
          <mxGeometry x="1050" y="830" width="160" height="86" as="geometry" />
        </mxCell>
        <mxCell id="HCh2mOCaZZa9Vk0N-4pF-50" value="+ field: type" style="text;strokeColor=none;fillColor=none;align=left;verticalAlign=top;spacingLeft=4;spacingRight=4;overflow=hidden;rotatable=0;points=[[0,0.5],[1,0.5]];portConstraint=eastwest;" vertex="1" parent="HCh2mOCaZZa9Vk0N-4pF-49">
          <mxGeometry y="26" width="160" height="26" as="geometry" />
        </mxCell>
        <mxCell id="HCh2mOCaZZa9Vk0N-4pF-51" value="" style="line;strokeWidth=1;fillColor=none;align=left;verticalAlign=middle;spacingTop=-1;spacingLeft=3;spacingRight=3;rotatable=0;labelPosition=right;points=[];portConstraint=eastwest;" vertex="1" parent="HCh2mOCaZZa9Vk0N-4pF-49">
          <mxGeometry y="52" width="160" height="8" as="geometry" />
        </mxCell>
        <mxCell id="HCh2mOCaZZa9Vk0N-4pF-52" value="+ method(type): type" style="text;strokeColor=none;fillColor=none;align=left;verticalAlign=top;spacingLeft=4;spacingRight=4;overflow=hidden;rotatable=0;points=[[0,0.5],[1,0.5]];portConstraint=eastwest;" vertex="1" parent="HCh2mOCaZZa9Vk0N-4pF-49">
          <mxGeometry y="60" width="160" height="26" as="geometry" />
        </mxCell>
        <mxCell id="HCh2mOCaZZa9Vk0N-4pF-54" value="OUTPUT" style="swimlane;fontStyle=1;align=center;verticalAlign=top;childLayout=stackLayout;horizontal=1;startSize=26;horizontalStack=0;resizeParent=1;resizeParentMax=0;resizeLast=0;collapsible=1;marginBottom=0;" vertex="1" parent="1">
          <mxGeometry x="610" y="830" width="160" height="86" as="geometry" />
        </mxCell>
        <mxCell id="HCh2mOCaZZa9Vk0N-4pF-55" value="+ field: type" style="text;strokeColor=none;fillColor=none;align=left;verticalAlign=top;spacingLeft=4;spacingRight=4;overflow=hidden;rotatable=0;points=[[0,0.5],[1,0.5]];portConstraint=eastwest;" vertex="1" parent="HCh2mOCaZZa9Vk0N-4pF-54">
          <mxGeometry y="26" width="160" height="26" as="geometry" />
        </mxCell>
        <mxCell id="HCh2mOCaZZa9Vk0N-4pF-56" value="" style="line;strokeWidth=1;fillColor=none;align=left;verticalAlign=middle;spacingTop=-1;spacingLeft=3;spacingRight=3;rotatable=0;labelPosition=right;points=[];portConstraint=eastwest;" vertex="1" parent="HCh2mOCaZZa9Vk0N-4pF-54">
          <mxGeometry y="52" width="160" height="8" as="geometry" />
        </mxCell>
        <mxCell id="HCh2mOCaZZa9Vk0N-4pF-57" value="+ method(type): type" style="text;strokeColor=none;fillColor=none;align=left;verticalAlign=top;spacingLeft=4;spacingRight=4;overflow=hidden;rotatable=0;points=[[0,0.5],[1,0.5]];portConstraint=eastwest;" vertex="1" parent="HCh2mOCaZZa9Vk0N-4pF-54">
          <mxGeometry y="60" width="160" height="26" as="geometry" />
        </mxCell>
        <mxCell id="HCh2mOCaZZa9Vk0N-4pF-70" style="edgeStyle=orthogonalEdgeStyle;rounded=0;orthogonalLoop=1;jettySize=auto;html=1;entryX=-0.021;entryY=0.817;entryDx=0;entryDy=0;entryPerimeter=0;" edge="1" parent="1" source="HCh2mOCaZZa9Vk0N-4pF-66" target="HCh2mOCaZZa9Vk0N-4pF-13">
          <mxGeometry relative="1" as="geometry" />
        </mxCell>
        <mxCell id="HCh2mOCaZZa9Vk0N-4pF-66" value="Learning" style="swimlane;fontStyle=0;childLayout=stackLayout;horizontal=1;startSize=26;fillColor=none;horizontalStack=0;resizeParent=1;resizeParentMax=0;resizeLast=0;collapsible=1;marginBottom=0;" vertex="1" parent="1">
          <mxGeometry x="480" y="470" width="140" height="104" as="geometry" />
        </mxCell>
        <mxCell id="HCh2mOCaZZa9Vk0N-4pF-67" value="+ field: type" style="text;strokeColor=none;fillColor=none;align=left;verticalAlign=top;spacingLeft=4;spacingRight=4;overflow=hidden;rotatable=0;points=[[0,0.5],[1,0.5]];portConstraint=eastwest;" vertex="1" parent="HCh2mOCaZZa9Vk0N-4pF-66">
          <mxGeometry y="26" width="140" height="26" as="geometry" />
        </mxCell>
        <mxCell id="HCh2mOCaZZa9Vk0N-4pF-68" value="+ field: type" style="text;strokeColor=none;fillColor=none;align=left;verticalAlign=top;spacingLeft=4;spacingRight=4;overflow=hidden;rotatable=0;points=[[0,0.5],[1,0.5]];portConstraint=eastwest;" vertex="1" parent="HCh2mOCaZZa9Vk0N-4pF-66">
          <mxGeometry y="52" width="140" height="26" as="geometry" />
        </mxCell>
        <mxCell id="HCh2mOCaZZa9Vk0N-4pF-69" value="+ field: type" style="text;strokeColor=none;fillColor=none;align=left;verticalAlign=top;spacingLeft=4;spacingRight=4;overflow=hidden;rotatable=0;points=[[0,0.5],[1,0.5]];portConstraint=eastwest;" vertex="1" parent="HCh2mOCaZZa9Vk0N-4pF-66">
          <mxGeometry y="78" width="140" height="26" as="geometry" />
        </mxCell>
      </root>
    </mxGraphModel>
  </diagram>
</mxfile>
